solid OpenSCAD_Model
  facet normal -0 0 1
    outer loop
      vertex 0 1.6 243.2
      vertex 108.2 0 243.2
      vertex 108.2 1.6 243.2
    endloop
  endfacet
  facet normal 0 0 1
    outer loop
      vertex 108.2 0 243.2
      vertex 0 1.6 243.2
      vertex 0 0 243.2
    endloop
  endfacet
  facet normal 0 0 -1
    outer loop
      vertex 0 0 0
      vertex 108.2 1.6 0
      vertex 108.2 0 0
    endloop
  endfacet
  facet normal -0 0 -1
    outer loop
      vertex 108.2 1.6 0
      vertex 0 0 0
      vertex 0 1.6 0
    endloop
  endfacet
  facet normal 0 -1 0
    outer loop
      vertex 0 0 0
      vertex 108.2 0 243.2
      vertex 0 0 243.2
    endloop
  endfacet
  facet normal 0 -1 -0
    outer loop
      vertex 108.2 0 243.2
      vertex 0 0 0
      vertex 108.2 0 0
    endloop
  endfacet
  facet normal 1 -0 0
    outer loop
      vertex 108.2 0 243.2
      vertex 108.2 1.6 0
      vertex 108.2 1.6 243.2
    endloop
  endfacet
  facet normal 1 0 0
    outer loop
      vertex 108.2 1.6 0
      vertex 108.2 0 243.2
      vertex 108.2 0 0
    endloop
  endfacet
  facet normal 0 1 -0
    outer loop
      vertex 108.2 1.6 0
      vertex 0 1.6 243.2
      vertex 108.2 1.6 243.2
    endloop
  endfacet
  facet normal 0 1 0
    outer loop
      vertex 0 1.6 243.2
      vertex 108.2 1.6 0
      vertex 0 1.6 0
    endloop
  endfacet
  facet normal -1 0 0
    outer loop
      vertex 0 0 0
      vertex 0 1.6 243.2
      vertex 0 1.6 0
    endloop
  endfacet
  facet normal -1 -0 0
    outer loop
      vertex 0 1.6 243.2
      vertex 0 0 0
      vertex 0 0 243.2
    endloop
  endfacet
endsolid OpenSCAD_Model
