solid OpenSCAD_Model
  facet normal -0 0 1
    outer loop
      vertex 0 190 240
      vertex 1.6 0 240
      vertex 1.6 190 240
    endloop
  endfacet
  facet normal 0 0 1
    outer loop
      vertex 1.6 0 240
      vertex 0 190 240
      vertex 0 0 240
    endloop
  endfacet
  facet normal 0 0 -1
    outer loop
      vertex 0 0 0
      vertex 1.6 190 0
      vertex 1.6 0 0
    endloop
  endfacet
  facet normal -0 0 -1
    outer loop
      vertex 1.6 190 0
      vertex 0 0 0
      vertex 0 190 0
    endloop
  endfacet
  facet normal 0 -1 0
    outer loop
      vertex 0 0 0
      vertex 1.6 0 240
      vertex 0 0 240
    endloop
  endfacet
  facet normal 0 -1 -0
    outer loop
      vertex 1.6 0 240
      vertex 0 0 0
      vertex 1.6 0 0
    endloop
  endfacet
  facet normal 1 -0 0
    outer loop
      vertex 1.6 0 240
      vertex 1.6 190 0
      vertex 1.6 190 240
    endloop
  endfacet
  facet normal 1 0 0
    outer loop
      vertex 1.6 190 0
      vertex 1.6 0 240
      vertex 1.6 0 0
    endloop
  endfacet
  facet normal 0 1 -0
    outer loop
      vertex 1.6 190 0
      vertex 0 190 240
      vertex 1.6 190 240
    endloop
  endfacet
  facet normal 0 1 0
    outer loop
      vertex 0 190 240
      vertex 1.6 190 0
      vertex 0 190 0
    endloop
  endfacet
  facet normal -1 0 0
    outer loop
      vertex 0 0 0
      vertex 0 190 240
      vertex 0 190 0
    endloop
  endfacet
  facet normal -1 -0 0
    outer loop
      vertex 0 190 240
      vertex 0 0 0
      vertex 0 0 240
    endloop
  endfacet
endsolid OpenSCAD_Model
