solid OpenSCAD_Model
  facet normal -0 0 1
    outer loop
      vertex 0 190 1.6
      vertex 108.2 0 1.6
      vertex 108.2 190 1.6
    endloop
  endfacet
  facet normal 0 0 1
    outer loop
      vertex 108.2 0 1.6
      vertex 0 190 1.6
      vertex 0 0 1.6
    endloop
  endfacet
  facet normal 0 0 -1
    outer loop
      vertex 0 0 0
      vertex 108.2 190 0
      vertex 108.2 0 0
    endloop
  endfacet
  facet normal -0 0 -1
    outer loop
      vertex 108.2 190 0
      vertex 0 0 0
      vertex 0 190 0
    endloop
  endfacet
  facet normal 0 -1 0
    outer loop
      vertex 0 0 0
      vertex 108.2 0 1.6
      vertex 0 0 1.6
    endloop
  endfacet
  facet normal 0 -1 -0
    outer loop
      vertex 108.2 0 1.6
      vertex 0 0 0
      vertex 108.2 0 0
    endloop
  endfacet
  facet normal 1 -0 0
    outer loop
      vertex 108.2 0 1.6
      vertex 108.2 190 0
      vertex 108.2 190 1.6
    endloop
  endfacet
  facet normal 1 0 0
    outer loop
      vertex 108.2 190 0
      vertex 108.2 0 1.6
      vertex 108.2 0 0
    endloop
  endfacet
  facet normal 0 1 -0
    outer loop
      vertex 108.2 190 0
      vertex 0 190 1.6
      vertex 108.2 190 1.6
    endloop
  endfacet
  facet normal 0 1 0
    outer loop
      vertex 0 190 1.6
      vertex 108.2 190 0
      vertex 0 190 0
    endloop
  endfacet
  facet normal -1 0 0
    outer loop
      vertex 0 0 0
      vertex 0 190 1.6
      vertex 0 190 0
    endloop
  endfacet
  facet normal -1 -0 0
    outer loop
      vertex 0 190 1.6
      vertex 0 0 0
      vertex 0 0 1.6
    endloop
  endfacet
endsolid OpenSCAD_Model
