solid OpenSCAD_Model
  facet normal 1 -0 0
    outer loop
      vertex -10.88 0 5
      vertex -10.88 5 2.5
      vertex -10.88 5 5
    endloop
  endfacet
  facet normal 1 0 0
    outer loop
      vertex -10.88 5 2.5
      vertex -10.88 0 5
      vertex -10.88 0 2.5
    endloop
  endfacet
  facet normal -1 0 0
    outer loop
      vertex -9.12 0 2.5
      vertex -9.12 5 5
      vertex -9.12 5 2.5
    endloop
  endfacet
  facet normal -1 -0 0
    outer loop
      vertex -9.12 5 5
      vertex -9.12 0 2.5
      vertex -9.12 0 5
    endloop
  endfacet
  facet normal -0 0 1
    outer loop
      vertex -10.88 5 2.5
      vertex -9.12 0 2.5
      vertex -9.12 5 2.5
    endloop
  endfacet
  facet normal 0 0 1
    outer loop
      vertex -9.12 0 2.5
      vertex -10.88 5 2.5
      vertex -10.88 0 2.5
    endloop
  endfacet
  facet normal 1 -0 0
    outer loop
      vertex -40.88 0 5
      vertex -40.88 5 2.5
      vertex -40.88 5 5
    endloop
  endfacet
  facet normal 1 0 0
    outer loop
      vertex -40.88 5 2.5
      vertex -40.88 0 5
      vertex -40.88 0 2.5
    endloop
  endfacet
  facet normal -1 0 0
    outer loop
      vertex -39.12 0 2.5
      vertex -39.12 5 5
      vertex -39.12 5 2.5
    endloop
  endfacet
  facet normal -1 -0 0
    outer loop
      vertex -39.12 5 5
      vertex -39.12 0 2.5
      vertex -39.12 0 5
    endloop
  endfacet
  facet normal -0 0 1
    outer loop
      vertex -40.88 5 2.5
      vertex -39.12 0 2.5
      vertex -39.12 5 2.5
    endloop
  endfacet
  facet normal 0 0 1
    outer loop
      vertex -39.12 0 2.5
      vertex -40.88 5 2.5
      vertex -40.88 0 2.5
    endloop
  endfacet
  facet normal 1 -0 0
    outer loop
      vertex -70.88 0 5
      vertex -70.88 5 2.5
      vertex -70.88 5 5
    endloop
  endfacet
  facet normal 1 0 0
    outer loop
      vertex -70.88 5 2.5
      vertex -70.88 0 5
      vertex -70.88 0 2.5
    endloop
  endfacet
  facet normal -1 0 0
    outer loop
      vertex -69.12 0 2.5
      vertex -69.12 5 5
      vertex -69.12 5 2.5
    endloop
  endfacet
  facet normal -1 -0 0
    outer loop
      vertex -69.12 5 5
      vertex -69.12 0 2.5
      vertex -69.12 0 5
    endloop
  endfacet
  facet normal -0 0 1
    outer loop
      vertex -70.88 5 2.5
      vertex -69.12 0 2.5
      vertex -69.12 5 2.5
    endloop
  endfacet
  facet normal 0 0 1
    outer loop
      vertex -69.12 0 2.5
      vertex -70.88 5 2.5
      vertex -70.88 0 2.5
    endloop
  endfacet
  facet normal 1 -0 0
    outer loop
      vertex -100.88 0 5
      vertex -100.88 5 2.5
      vertex -100.88 5 5
    endloop
  endfacet
  facet normal 1 0 0
    outer loop
      vertex -100.88 5 2.5
      vertex -100.88 0 5
      vertex -100.88 0 2.5
    endloop
  endfacet
  facet normal -1 0 0
    outer loop
      vertex -99.12 0 2.5
      vertex -99.12 5 5
      vertex -99.12 5 2.5
    endloop
  endfacet
  facet normal -1 -0 0
    outer loop
      vertex -99.12 5 5
      vertex -99.12 0 2.5
      vertex -99.12 0 5
    endloop
  endfacet
  facet normal -0 0 1
    outer loop
      vertex -100.88 5 2.5
      vertex -99.12 0 2.5
      vertex -99.12 5 2.5
    endloop
  endfacet
  facet normal 0 0 1
    outer loop
      vertex -99.12 0 2.5
      vertex -100.88 5 2.5
      vertex -100.88 0 2.5
    endloop
  endfacet
  facet normal 1 -0 0
    outer loop
      vertex -130.88 0 5
      vertex -130.88 5 2.5
      vertex -130.88 5 5
    endloop
  endfacet
  facet normal 1 0 0
    outer loop
      vertex -130.88 5 2.5
      vertex -130.88 0 5
      vertex -130.88 0 2.5
    endloop
  endfacet
  facet normal -1 0 0
    outer loop
      vertex -129.12 0 2.5
      vertex -129.12 5 5
      vertex -129.12 5 2.5
    endloop
  endfacet
  facet normal -1 -0 0
    outer loop
      vertex -129.12 5 5
      vertex -129.12 0 2.5
      vertex -129.12 0 5
    endloop
  endfacet
  facet normal -0 0 1
    outer loop
      vertex -130.88 5 2.5
      vertex -129.12 0 2.5
      vertex -129.12 5 2.5
    endloop
  endfacet
  facet normal 0 0 1
    outer loop
      vertex -129.12 0 2.5
      vertex -130.88 5 2.5
      vertex -130.88 0 2.5
    endloop
  endfacet
  facet normal 1 -0 0
    outer loop
      vertex -160.88 0 5
      vertex -160.88 5 2.5
      vertex -160.88 5 5
    endloop
  endfacet
  facet normal 1 0 0
    outer loop
      vertex -160.88 5 2.5
      vertex -160.88 0 5
      vertex -160.88 0 2.5
    endloop
  endfacet
  facet normal -1 0 0
    outer loop
      vertex -159.12 0 2.5
      vertex -159.12 5 5
      vertex -159.12 5 2.5
    endloop
  endfacet
  facet normal -1 -0 0
    outer loop
      vertex -159.12 5 5
      vertex -159.12 0 2.5
      vertex -159.12 0 5
    endloop
  endfacet
  facet normal -0 0 1
    outer loop
      vertex -160.88 5 2.5
      vertex -159.12 0 2.5
      vertex -159.12 5 2.5
    endloop
  endfacet
  facet normal 0 0 1
    outer loop
      vertex -159.12 0 2.5
      vertex -160.88 5 2.5
      vertex -160.88 0 2.5
    endloop
  endfacet
  facet normal 1 -0 0
    outer loop
      vertex -190.88 0 5
      vertex -190.88 5 2.5
      vertex -190.88 5 5
    endloop
  endfacet
  facet normal 1 0 0
    outer loop
      vertex -190.88 5 2.5
      vertex -190.88 0 5
      vertex -190.88 0 2.5
    endloop
  endfacet
  facet normal -1 0 0
    outer loop
      vertex -189.12 0 2.5
      vertex -189.12 5 5
      vertex -189.12 5 2.5
    endloop
  endfacet
  facet normal -1 -0 0
    outer loop
      vertex -189.12 5 5
      vertex -189.12 0 2.5
      vertex -189.12 0 5
    endloop
  endfacet
  facet normal -0 0 1
    outer loop
      vertex -190.88 5 2.5
      vertex -189.12 0 2.5
      vertex -189.12 5 2.5
    endloop
  endfacet
  facet normal 0 0 1
    outer loop
      vertex -189.12 0 2.5
      vertex -190.88 5 2.5
      vertex -190.88 0 2.5
    endloop
  endfacet
  facet normal 1 -0 0
    outer loop
      vertex -220.88 0 5
      vertex -220.88 5 2.5
      vertex -220.88 5 5
    endloop
  endfacet
  facet normal 1 0 0
    outer loop
      vertex -220.88 5 2.5
      vertex -220.88 0 5
      vertex -220.88 0 2.5
    endloop
  endfacet
  facet normal -1 0 0
    outer loop
      vertex -219.12 0 2.5
      vertex -219.12 5 5
      vertex -219.12 5 2.5
    endloop
  endfacet
  facet normal -1 -0 0
    outer loop
      vertex -219.12 5 5
      vertex -219.12 0 2.5
      vertex -219.12 0 5
    endloop
  endfacet
  facet normal -0 0 1
    outer loop
      vertex -220.88 5 2.5
      vertex -219.12 0 2.5
      vertex -219.12 5 2.5
    endloop
  endfacet
  facet normal 0 0 1
    outer loop
      vertex -219.12 0 2.5
      vertex -220.88 5 2.5
      vertex -220.88 0 2.5
    endloop
  endfacet
  facet normal -0 0 1
    outer loop
      vertex -240 5 5
      vertex -220.88 0 5
      vertex -220.88 5 5
    endloop
  endfacet
  facet normal 0 0 1
    outer loop
      vertex -220.88 0 5
      vertex -240 5 5
      vertex -240 0 5
    endloop
  endfacet
  facet normal -0 0 1
    outer loop
      vertex -9.12 5 5
      vertex 0 0 5
      vertex 0 5 5
    endloop
  endfacet
  facet normal 0 0 1
    outer loop
      vertex 0 0 5
      vertex -9.12 5 5
      vertex -9.12 0 5
    endloop
  endfacet
  facet normal -0 0 1
    outer loop
      vertex -39.12 5 5
      vertex -10.88 0 5
      vertex -10.88 5 5
    endloop
  endfacet
  facet normal 0 0 1
    outer loop
      vertex -10.88 0 5
      vertex -39.12 5 5
      vertex -39.12 0 5
    endloop
  endfacet
  facet normal -0 0 1
    outer loop
      vertex -69.12 5 5
      vertex -40.88 0 5
      vertex -40.88 5 5
    endloop
  endfacet
  facet normal 0 0 1
    outer loop
      vertex -40.88 0 5
      vertex -69.12 5 5
      vertex -69.12 0 5
    endloop
  endfacet
  facet normal -0 0 1
    outer loop
      vertex -99.12 5 5
      vertex -70.88 0 5
      vertex -70.88 5 5
    endloop
  endfacet
  facet normal 0 0 1
    outer loop
      vertex -70.88 0 5
      vertex -99.12 5 5
      vertex -99.12 0 5
    endloop
  endfacet
  facet normal -0 0 1
    outer loop
      vertex -129.12 5 5
      vertex -100.88 0 5
      vertex -100.88 5 5
    endloop
  endfacet
  facet normal 0 0 1
    outer loop
      vertex -100.88 0 5
      vertex -129.12 5 5
      vertex -129.12 0 5
    endloop
  endfacet
  facet normal -0 0 1
    outer loop
      vertex -159.12 5 5
      vertex -130.88 0 5
      vertex -130.88 5 5
    endloop
  endfacet
  facet normal 0 0 1
    outer loop
      vertex -130.88 0 5
      vertex -159.12 5 5
      vertex -159.12 0 5
    endloop
  endfacet
  facet normal -0 0 1
    outer loop
      vertex -189.12 5 5
      vertex -160.88 0 5
      vertex -160.88 5 5
    endloop
  endfacet
  facet normal 0 0 1
    outer loop
      vertex -160.88 0 5
      vertex -189.12 5 5
      vertex -189.12 0 5
    endloop
  endfacet
  facet normal -0 0 1
    outer loop
      vertex -219.12 5 5
      vertex -190.88 0 5
      vertex -190.88 5 5
    endloop
  endfacet
  facet normal 0 0 1
    outer loop
      vertex -190.88 0 5
      vertex -219.12 5 5
      vertex -219.12 0 5
    endloop
  endfacet
  facet normal -1 0 0
    outer loop
      vertex -240 0 0
      vertex -240 5 5
      vertex -240 5 0
    endloop
  endfacet
  facet normal -1 -0 0
    outer loop
      vertex -240 5 5
      vertex -240 0 0
      vertex -240 0 5
    endloop
  endfacet
  facet normal 1 -0 0
    outer loop
      vertex 0 0 5
      vertex 0 5 0
      vertex 0 5 5
    endloop
  endfacet
  facet normal 1 0 0
    outer loop
      vertex 0 5 0
      vertex 0 0 5
      vertex 0 0 0
    endloop
  endfacet
  facet normal 0 0 -1
    outer loop
      vertex -240 0 0
      vertex 0 5 0
      vertex 0 0 0
    endloop
  endfacet
  facet normal -0 0 -1
    outer loop
      vertex 0 5 0
      vertex -240 0 0
      vertex -240 5 0
    endloop
  endfacet
  facet normal 0 1 0
    outer loop
      vertex 0 5 5
      vertex -9.12 5 2.5
      vertex -9.12 5 5
    endloop
  endfacet
  facet normal 0 1 0
    outer loop
      vertex 0 5 0
      vertex -10.88 5 2.5
      vertex -9.12 5 2.5
    endloop
  endfacet
  facet normal 0 1 0
    outer loop
      vertex -10.88 5 2.5
      vertex 0 5 0
      vertex -39.12 5 2.5
    endloop
  endfacet
  facet normal 0 1 0
    outer loop
      vertex -39.12 5 2.5
      vertex 0 5 0
      vertex -40.88 5 2.5
    endloop
  endfacet
  facet normal 0 1 0
    outer loop
      vertex -40.88 5 2.5
      vertex 0 5 0
      vertex -69.12 5 2.5
    endloop
  endfacet
  facet normal 0 1 0
    outer loop
      vertex -69.12 5 2.5
      vertex 0 5 0
      vertex -70.88 5 2.5
    endloop
  endfacet
  facet normal 0 1 0
    outer loop
      vertex -70.88 5 2.5
      vertex 0 5 0
      vertex -99.12 5 2.5
    endloop
  endfacet
  facet normal 0 1 0
    outer loop
      vertex -99.12 5 2.5
      vertex 0 5 0
      vertex -100.88 5 2.5
    endloop
  endfacet
  facet normal 0 1 0
    outer loop
      vertex -100.88 5 2.5
      vertex 0 5 0
      vertex -129.12 5 2.5
    endloop
  endfacet
  facet normal 0 1 0
    outer loop
      vertex -129.12 5 2.5
      vertex 0 5 0
      vertex -130.88 5 2.5
    endloop
  endfacet
  facet normal 0 1 0
    outer loop
      vertex -240 5 0
      vertex -130.88 5 2.5
      vertex 0 5 0
    endloop
  endfacet
  facet normal 0 1 0
    outer loop
      vertex -130.88 5 2.5
      vertex -240 5 0
      vertex -159.12 5 2.5
    endloop
  endfacet
  facet normal 0 1 0
    outer loop
      vertex -159.12 5 2.5
      vertex -240 5 0
      vertex -160.88 5 2.5
    endloop
  endfacet
  facet normal 0 1 0
    outer loop
      vertex -160.88 5 2.5
      vertex -240 5 0
      vertex -189.12 5 2.5
    endloop
  endfacet
  facet normal 0 1 0
    outer loop
      vertex -189.12 5 2.5
      vertex -240 5 0
      vertex -190.88 5 2.5
    endloop
  endfacet
  facet normal 0 1 0
    outer loop
      vertex -190.88 5 2.5
      vertex -240 5 0
      vertex -219.12 5 2.5
    endloop
  endfacet
  facet normal 0 1 -0
    outer loop
      vertex 0 5 0
      vertex -9.12 5 2.5
      vertex 0 5 5
    endloop
  endfacet
  facet normal 0 1 -0
    outer loop
      vertex -10.88 5 2.5
      vertex -39.12 5 5
      vertex -10.88 5 5
    endloop
  endfacet
  facet normal 0 1 0
    outer loop
      vertex -39.12 5 5
      vertex -10.88 5 2.5
      vertex -39.12 5 2.5
    endloop
  endfacet
  facet normal 0 1 -0
    outer loop
      vertex -40.88 5 2.5
      vertex -69.12 5 5
      vertex -40.88 5 5
    endloop
  endfacet
  facet normal 0 1 0
    outer loop
      vertex -69.12 5 5
      vertex -40.88 5 2.5
      vertex -69.12 5 2.5
    endloop
  endfacet
  facet normal 0 1 -0
    outer loop
      vertex -70.88 5 2.5
      vertex -99.12 5 5
      vertex -70.88 5 5
    endloop
  endfacet
  facet normal 0 1 0
    outer loop
      vertex -99.12 5 5
      vertex -70.88 5 2.5
      vertex -99.12 5 2.5
    endloop
  endfacet
  facet normal 0 1 -0
    outer loop
      vertex -100.88 5 2.5
      vertex -129.12 5 5
      vertex -100.88 5 5
    endloop
  endfacet
  facet normal 0 1 0
    outer loop
      vertex -129.12 5 5
      vertex -100.88 5 2.5
      vertex -129.12 5 2.5
    endloop
  endfacet
  facet normal 0 1 -0
    outer loop
      vertex -130.88 5 2.5
      vertex -159.12 5 5
      vertex -130.88 5 5
    endloop
  endfacet
  facet normal 0 1 0
    outer loop
      vertex -159.12 5 5
      vertex -130.88 5 2.5
      vertex -159.12 5 2.5
    endloop
  endfacet
  facet normal 0 1 -0
    outer loop
      vertex -160.88 5 2.5
      vertex -189.12 5 5
      vertex -160.88 5 5
    endloop
  endfacet
  facet normal 0 1 0
    outer loop
      vertex -189.12 5 5
      vertex -160.88 5 2.5
      vertex -189.12 5 2.5
    endloop
  endfacet
  facet normal 0 1 -0
    outer loop
      vertex -190.88 5 2.5
      vertex -219.12 5 5
      vertex -190.88 5 5
    endloop
  endfacet
  facet normal 0 1 0
    outer loop
      vertex -219.12 5 5
      vertex -190.88 5 2.5
      vertex -219.12 5 2.5
    endloop
  endfacet
  facet normal 0 1 -0
    outer loop
      vertex -220.88 5 2.5
      vertex -240 5 5
      vertex -220.88 5 5
    endloop
  endfacet
  facet normal 0 1 0
    outer loop
      vertex -220.88 5 2.5
      vertex -240 5 0
      vertex -240 5 5
    endloop
  endfacet
  facet normal 0 1 0
    outer loop
      vertex -219.12 5 2.5
      vertex -240 5 0
      vertex -220.88 5 2.5
    endloop
  endfacet
  facet normal 0 -1 0
    outer loop
      vertex -240 0 5
      vertex -220.88 0 2.5
      vertex -220.88 0 5
    endloop
  endfacet
  facet normal 0 -1 0
    outer loop
      vertex -240 0 0
      vertex -219.12 0 2.5
      vertex -220.88 0 2.5
    endloop
  endfacet
  facet normal 0 -1 -0
    outer loop
      vertex -219.12 0 2.5
      vertex -240 0 0
      vertex -190.88 0 2.5
    endloop
  endfacet
  facet normal 0 -1 -0
    outer loop
      vertex -190.88 0 2.5
      vertex -240 0 0
      vertex -189.12 0 2.5
    endloop
  endfacet
  facet normal 0 -1 -0
    outer loop
      vertex -189.12 0 2.5
      vertex -240 0 0
      vertex -160.88 0 2.5
    endloop
  endfacet
  facet normal 0 -1 -0
    outer loop
      vertex -160.88 0 2.5
      vertex -240 0 0
      vertex -159.12 0 2.5
    endloop
  endfacet
  facet normal 0 -1 -0
    outer loop
      vertex -159.12 0 2.5
      vertex -240 0 0
      vertex -130.88 0 2.5
    endloop
  endfacet
  facet normal 0 -1 -0
    outer loop
      vertex -130.88 0 2.5
      vertex -240 0 0
      vertex -129.12 0 2.5
    endloop
  endfacet
  facet normal 0 -1 -0
    outer loop
      vertex -129.12 0 2.5
      vertex -240 0 0
      vertex -100.88 0 2.5
    endloop
  endfacet
  facet normal 0 -1 -0
    outer loop
      vertex -100.88 0 2.5
      vertex -240 0 0
      vertex -99.12 0 2.5
    endloop
  endfacet
  facet normal 0 -1 0
    outer loop
      vertex 0 0 0
      vertex -99.12 0 2.5
      vertex -240 0 0
    endloop
  endfacet
  facet normal 0 -1 0
    outer loop
      vertex -99.12 0 2.5
      vertex 0 0 0
      vertex -70.88 0 2.5
    endloop
  endfacet
  facet normal 0 -1 0
    outer loop
      vertex -70.88 0 2.5
      vertex 0 0 0
      vertex -69.12 0 2.5
    endloop
  endfacet
  facet normal 0 -1 0
    outer loop
      vertex -69.12 0 2.5
      vertex 0 0 0
      vertex -40.88 0 2.5
    endloop
  endfacet
  facet normal 0 -1 0
    outer loop
      vertex -39.12 0 2.5
      vertex 0 0 0
      vertex -10.88 0 2.5
    endloop
  endfacet
  facet normal 0 -1 0
    outer loop
      vertex -40.88 0 2.5
      vertex 0 0 0
      vertex -39.12 0 2.5
    endloop
  endfacet
  facet normal 0 -1 0
    outer loop
      vertex -240 0 0
      vertex -220.88 0 2.5
      vertex -240 0 5
    endloop
  endfacet
  facet normal 0 -1 0
    outer loop
      vertex -219.12 0 2.5
      vertex -190.88 0 5
      vertex -219.12 0 5
    endloop
  endfacet
  facet normal 0 -1 -0
    outer loop
      vertex -190.88 0 5
      vertex -219.12 0 2.5
      vertex -190.88 0 2.5
    endloop
  endfacet
  facet normal 0 -1 0
    outer loop
      vertex -189.12 0 2.5
      vertex -160.88 0 5
      vertex -189.12 0 5
    endloop
  endfacet
  facet normal 0 -1 -0
    outer loop
      vertex -160.88 0 5
      vertex -189.12 0 2.5
      vertex -160.88 0 2.5
    endloop
  endfacet
  facet normal 0 -1 0
    outer loop
      vertex -159.12 0 2.5
      vertex -130.88 0 5
      vertex -159.12 0 5
    endloop
  endfacet
  facet normal 0 -1 -0
    outer loop
      vertex -130.88 0 5
      vertex -159.12 0 2.5
      vertex -130.88 0 2.5
    endloop
  endfacet
  facet normal 0 -1 0
    outer loop
      vertex -129.12 0 2.5
      vertex -100.88 0 5
      vertex -129.12 0 5
    endloop
  endfacet
  facet normal 0 -1 -0
    outer loop
      vertex -100.88 0 5
      vertex -129.12 0 2.5
      vertex -100.88 0 2.5
    endloop
  endfacet
  facet normal 0 -1 0
    outer loop
      vertex -99.12 0 2.5
      vertex -70.88 0 5
      vertex -99.12 0 5
    endloop
  endfacet
  facet normal 0 -1 -0
    outer loop
      vertex -70.88 0 5
      vertex -99.12 0 2.5
      vertex -70.88 0 2.5
    endloop
  endfacet
  facet normal 0 -1 0
    outer loop
      vertex -69.12 0 2.5
      vertex -40.88 0 5
      vertex -69.12 0 5
    endloop
  endfacet
  facet normal 0 -1 -0
    outer loop
      vertex -40.88 0 5
      vertex -69.12 0 2.5
      vertex -40.88 0 2.5
    endloop
  endfacet
  facet normal 0 -1 0
    outer loop
      vertex -39.12 0 2.5
      vertex -10.88 0 5
      vertex -39.12 0 5
    endloop
  endfacet
  facet normal 0 -1 -0
    outer loop
      vertex -10.88 0 5
      vertex -39.12 0 2.5
      vertex -10.88 0 2.5
    endloop
  endfacet
  facet normal 0 -1 0
    outer loop
      vertex -9.12 0 2.5
      vertex 0 0 5
      vertex -9.12 0 5
    endloop
  endfacet
  facet normal 0 -1 0
    outer loop
      vertex -9.12 0 2.5
      vertex 0 0 0
      vertex 0 0 5
    endloop
  endfacet
  facet normal 0 -1 0
    outer loop
      vertex -10.88 0 2.5
      vertex 0 0 0
      vertex -9.12 0 2.5
    endloop
  endfacet
endsolid OpenSCAD_Model
