<?xml version="1.0" standalone="no"?>
 <!DOCTYPE svg PUBLIC "-//W3C//DTD SVG 1.1//EN" 
 "http://www.w3.org/Graphics/SVG/1.1/DTD/svg11.dtd"> 
<svg
  xmlns:svg="http://www.w3.org/2000/svg"
  xmlns="http://www.w3.org/2000/svg"
  xmlns:xlink="http://www.w3.org/1999/xlink"
  version="1.1"
  width="47.19320mm" height="28.57500mm" viewBox="0.00000 0.00000 47.19320 28.57500">
<title>SVG Image created as Interconnector-B_Cu.svg date 2025/10/14 21:03:18 </title>
  <desc>Image generated by PCBNEW </desc>
<g style="fill:#000000; fill-opacity:1.00000;stroke:#000000; stroke-opacity:1.00000;
stroke-linecap:round; stroke-linejoin:round;"
 transform="translate(0 0) scale(1 1)">
<path style="fill:#000000; fill-opacity:1.00000; stroke:none;fill-rule:evenodd;"
d="M 2.76825,10.69786
2.76825,8.99786
4.46825,8.99786
4.46825,10.69786
Z" /> 
<path style="fill:#000000; fill-opacity:1.00000; stroke:none;fill-rule:evenodd;"
d="M 37.48825,17.88786
37.48825,19.58786
35.78825,19.58786
35.78825,17.88786
Z" /> 
</g>
<g style="fill:#000000; fill-opacity:1.00000; stroke:none;">
<circle cx="36.63825" cy="16.19786" r="0.85000" /> 
</g>
<g style="fill:#000000; fill-opacity:1.00000; stroke:none;">
<circle cx="36.63825" cy="13.65786" r="0.85000" /> 
</g>
<g style="fill:#000000; fill-opacity:1.00000; stroke:none;">
<circle cx="36.63825" cy="11.11786" r="0.85000" /> 
<path style="fill:#000000; fill-opacity:1.00000; stroke:none;fill-rule:evenodd;"
d="M 4.46825,14.50786
2.76825,14.50786
2.76825,12.80786
4.46825,12.80786
Z" /> 
</g>
<g style="fill:#000000; fill-opacity:1.00000; stroke:none;">
<circle cx="6.15825" cy="13.65786" r="0.85000" /> 
</g>
<g style="fill:#000000; fill-opacity:1.00000; stroke:none;">
<circle cx="8.69825" cy="13.65786" r="0.85000" /> 
</g>
<g style="fill:#000000; fill-opacity:1.00000; stroke:none;">
<circle cx="11.23825" cy="13.65786" r="0.85000" /> 
<path style="fill:#000000; fill-opacity:1.00000; stroke:none;fill-rule:evenodd;"
d="M 14.19825,19.58786
14.19825,17.88786
15.89825,17.88786
15.89825,19.58786
Z" /> 
<path style="fill:#000000; fill-opacity:1.00000; stroke:none;fill-rule:evenodd;"
d="M 19.70825,22.12786
18.00825,22.12786
18.00825,20.42786
19.70825,20.42786
Z" /> 
</g>
<g style="fill:#000000; fill-opacity:1.00000; stroke:none;">
<circle cx="18.85825" cy="18.73786" r="0.85000" /> 
</g>
<g style="fill:#000000; fill-opacity:1.00000; stroke:none;">
<circle cx="21.39825" cy="21.27786" r="0.85000" /> 
</g>
<g style="fill:#000000; fill-opacity:1.00000; stroke:none;">
<circle cx="21.39825" cy="18.73786" r="0.85000" /> 
</g>
<g style="fill:#000000; fill-opacity:1.00000; stroke:none;">
<circle cx="23.93825" cy="21.27786" r="0.85000" /> 
</g>
<g style="fill:#000000; fill-opacity:1.00000; stroke:none;">
<circle cx="23.93825" cy="18.73786" r="0.85000" /> 
</g>
<g style="fill:#000000; fill-opacity:1.00000; stroke:none;">
<circle cx="26.47825" cy="21.27786" r="0.85000" /> 
</g>
<g style="fill:#000000; fill-opacity:1.00000; stroke:none;">
<circle cx="26.47825" cy="18.73786" r="0.85000" /> 
</g>
<g style="fill:#000000; fill-opacity:1.00000; stroke:none;">
<circle cx="29.01825" cy="21.27786" r="0.85000" /> 
</g>
<g style="fill:#000000; fill-opacity:1.00000; stroke:none;">
<circle cx="29.01825" cy="18.73786" r="0.85000" /> 
</g>
<g style="fill:#000000; fill-opacity:1.00000; stroke:none;">
<circle cx="31.55825" cy="21.27786" r="0.85000" /> 
</g>
<g style="fill:#000000; fill-opacity:1.00000; stroke:none;">
<circle cx="31.55825" cy="18.73786" r="0.85000" /> 
<path style="fill:#000000; fill-opacity:1.00000; stroke:none;fill-rule:evenodd;"
d="M 4.46825,6.88786
2.76825,6.88786
2.76825,5.18786
4.46825,5.18786
Z" /> 
</g>
<g style="fill:#000000; fill-opacity:1.00000; stroke:none;">
<circle cx="3.61825" cy="3.49786" r="0.85000" /> 
</g>
<g style="fill:#000000; fill-opacity:1.00000; stroke:none;">
<circle cx="6.15825" cy="6.03786" r="0.85000" /> 
</g>
<g style="fill:#000000; fill-opacity:1.00000; stroke:none;">
<circle cx="6.15825" cy="3.49786" r="0.85000" /> 
</g>
<g style="fill:#000000; fill-opacity:1.00000; stroke:none;">
<circle cx="8.69825" cy="6.03786" r="0.85000" /> 
</g>
<g style="fill:#000000; fill-opacity:1.00000; stroke:none;">
<circle cx="8.69825" cy="3.49786" r="0.85000" /> 
</g>
<g style="fill:#000000; fill-opacity:1.00000; stroke:none;">
<circle cx="11.23825" cy="6.03786" r="0.85000" /> 
</g>
<g style="fill:#000000; fill-opacity:1.00000; stroke:none;">
<circle cx="11.23825" cy="3.49786" r="0.85000" /> 
</g>
<g style="fill:#000000; fill-opacity:1.00000; stroke:none;">
<circle cx="13.77825" cy="6.03786" r="0.85000" /> 
</g>
<g style="fill:#000000; fill-opacity:1.00000; stroke:none;">
<circle cx="13.77825" cy="3.49786" r="0.85000" /> 
</g>
<g style="fill:#000000; fill-opacity:1.00000; stroke:none;">
<circle cx="16.31825" cy="6.03786" r="0.85000" /> 
</g>
<g style="fill:#000000; fill-opacity:1.00000; stroke:none;">
<circle cx="16.31825" cy="3.49786" r="0.85000" /> 
</g>
<g style="fill:#000000; fill-opacity:1.00000; stroke:none;">
<circle cx="18.85825" cy="6.03786" r="0.85000" /> 
</g>
<g style="fill:#000000; fill-opacity:1.00000; stroke:none;">
<circle cx="18.85825" cy="3.49786" r="0.85000" /> 
</g>
<g style="fill:#000000; fill-opacity:1.00000; stroke:none;">
<circle cx="21.39825" cy="6.03786" r="0.85000" /> 
</g>
<g style="fill:#000000; fill-opacity:1.00000; stroke:none;">
<circle cx="21.39825" cy="3.49786" r="0.85000" /> 
</g>
<g style="fill:#000000; fill-opacity:1.00000; stroke:none;">
<circle cx="23.93825" cy="6.03786" r="0.85000" /> 
</g>
<g style="fill:#000000; fill-opacity:1.00000; stroke:none;">
<circle cx="23.93825" cy="3.49786" r="0.85000" /> 
</g>
<g style="fill:#000000; fill-opacity:1.00000; stroke:none;">
<circle cx="26.47825" cy="6.03786" r="0.85000" /> 
</g>
<g style="fill:#000000; fill-opacity:1.00000; stroke:none;">
<circle cx="26.47825" cy="3.49786" r="0.85000" /> 
</g>
<g style="fill:#000000; fill-opacity:1.00000; stroke:none;">
<circle cx="29.01825" cy="6.03786" r="0.85000" /> 
</g>
<g style="fill:#000000; fill-opacity:1.00000; stroke:none;">
<circle cx="29.01825" cy="3.49786" r="0.85000" /> 
</g>
<g style="fill:#000000; fill-opacity:1.00000; stroke:none;">
<circle cx="31.55825" cy="6.03786" r="0.85000" /> 
</g>
<g style="fill:#000000; fill-opacity:1.00000; stroke:none;">
<circle cx="31.55825" cy="3.49786" r="0.85000" /> 
</g>
<g style="fill:#000000; fill-opacity:1.00000; stroke:none;">
<circle cx="34.09825" cy="6.03786" r="0.85000" /> 
</g>
<g style="fill:#000000; fill-opacity:1.00000; stroke:none;">
<circle cx="34.09825" cy="3.49786" r="0.85000" /> 
</g>
<g style="fill:#000000; fill-opacity:1.00000; stroke:none;">
<circle cx="36.63825" cy="6.03786" r="0.85000" /> 
</g>
<g style="fill:#000000; fill-opacity:1.00000; stroke:none;">
<circle cx="36.63825" cy="3.49786" r="0.85000" /> 
</g>
<g style="fill:none; 
stroke:#000000; stroke-width:0.80000; stroke-opacity:1; 
stroke-linecap:round; stroke-linejoin:round;">
<path d="M3.61825 13.65786
L3.61825 9.84786
" />
</g>
<g style="fill:none; 
stroke:#000000; stroke-width:0.38100; stroke-opacity:1; 
stroke-linecap:round; stroke-linejoin:round;">
<path d="M23.93825 3.49786
L25.20825 4.76786
" />
<path d="M27.74825 20.00786
L29.01825 21.27786
" />
<path d="M25.20825 4.76786
L25.20825 11.37186
" />
<path d="M25.20825 11.37186
L27.74825 13.91186
" />
<path d="M27.74825 13.91186
L27.74825 20.00786
" />
<path d="M21.39825 3.49786
L22.66825 4.76786
" />
<path d="M22.66825 4.76786
L22.66825 10.60986
" />
<path d="M22.66825 10.60986
L26.47825 14.41986
" />
<path d="M26.47825 14.41986
L26.47825 18.73786
" />
<path d="M18.85825 3.49786
L20.12825 4.76786
" />
<path d="M20.12825 4.76786
L20.12825 9.84786
" />
<path d="M20.12825 9.84786
L25.20825 14.92786
" />
<path d="M25.20825 14.92786
L25.20825 20.00786
" />
<path d="M25.20825 20.00786
L26.47825 21.27786
" />
<path d="M23.93825 18.73786
L23.93825 15.49936
" />
<path d="M17.58825 4.76786
L16.31825 3.49786
" />
<path d="M23.93825 15.49936
L17.58825 9.14936
" />
<path d="M17.58825 9.14936
L17.58825 4.76786
" />
<path d="M13.77825 3.49786
L15.04825 4.76786
" />
<path d="M15.04825 8.57786
L22.66825 16.19786
" />
<path d="M22.66825 20.00786
L23.93825 21.27786
" />
<path d="M15.04825 4.76786
L15.04825 8.57786
" />
<path d="M22.66825 16.19786
L22.66825 20.00786
" />
</g>
<g style="fill:none; 
stroke:#000000; stroke-width:0.80000; stroke-opacity:1; 
stroke-linecap:round; stroke-linejoin:round;">
<path d="M18.85825 21.27786
L11.23825 21.27786
" />
<path d="M11.23825 21.27786
L3.61825 13.65786
" />
</g>
<g style="fill:none; 
stroke:#000000; stroke-width:0.38100; stroke-opacity:1; 
stroke-linecap:round; stroke-linejoin:round;">
<path d="M15.04825 18.73786
L18.85825 18.73786
" />
<path d="M26.47825 3.49786
L27.74825 4.76786
" />
<path d="M27.74825 4.76786
L27.74825 9.33986
" />
<path d="M29.01825 10.60986
L29.01825 18.73786
" />
<path d="M27.74825 9.33986
L29.01825 10.60986
" />
<path d="M21.39825 18.73786
L21.39825 16.70586
" />
<path d="M13.27025 10.10186
L12.50825 9.33986
" />
<path d="M21.39825 16.70586
L14.79425 10.10186
" />
<path d="M14.79425 10.10186
L13.27025 10.10186
" />
<path d="M12.50825 9.33986
L12.50825 4.76786
" />
<path d="M12.50825 4.76786
L11.23825 3.49786
" />
<path d="M8.69825 3.49786
L9.96825 4.76786
" />
<path d="M9.96825 4.76786
L9.96825 9.84786
" />
<path d="M9.96825 9.84786
L11.23825 11.11786
" />
<path d="M13.77825 11.11786
L20.12825 17.46786
" />
<path d="M11.23825 11.11786
L13.77825 11.11786
" />
<path d="M20.12825 17.46786
L20.12825 20.00786
" />
<path d="M20.12825 20.00786
L21.39825 21.27786
" />
<path d="M29.01825 3.49786
L30.28825 4.76786
" />
<path d="M30.28825 4.76786
L30.28825 12.38786
" />
<path d="M30.28825 12.38786
L36.63825 18.73786
" />
<path d="M31.55825 3.49786
L32.82825 4.76786
" />
<path d="M32.82825 4.76786
L32.82825 12.38786
" />
<path d="M32.82825 12.38786
L36.63825 16.19786
" />
<path d="M34.09825 3.49786
L35.36825 4.76786
" />
<path d="M35.36825 4.76786
L35.36825 12.38786
" />
<path d="M35.36825 12.38786
L36.63825 13.65786
" />
<path d="M36.63825 3.49786
L37.90825 4.76786
" />
<path d="M37.90825 4.76786
L37.90825 9.84786
" />
<path d="M37.90825 9.84786
L36.63825 11.11786
" />
<path d="M6.15825 3.49786
L7.42825 4.76786
" />
<path d="M7.42825 4.76786
L7.42825 12.38786
" />
<path d="M7.42825 12.38786
L8.69825 13.65786
" />
<path d="M3.61825 3.49786
L4.88825 4.76786
" />
<path d="M4.88825 4.76786
L4.88825 12.38786
" />
<path d="M4.88825 12.38786
L6.15825 13.65786
" />
<path style="fill:#000000; fill-opacity:1.00000; stroke:none;fill-rule:evenodd;"
d="M 38.62079,1.47804
38.66654,1.53085
38.67775,1.58236
38.67775,4.45589
38.65807,4.52293
38.60526,4.56869
38.53610,4.57863
38.47255,4.54961
38.44636,4.51790
38.38117,4.40497
38.26680,4.29061
38.26679,4.29060
37.88935,3.91316
37.85587,3.85184
37.85867,3.79587
37.85682,3.79542
37.85795,3.79070
37.85796,3.79068
37.87475,3.68464
37.88875,3.59628
37.88875,3.39943
37.85796,3.20503
37.79713,3.01783
37.70777,2.84245
37.59208,2.68321
37.45290,2.54403
37.29366,2.42833
37.11828,2.33898
36.93108,2.27815
36.73667,2.24736
36.73667,2.24736
36.53983,2.24736
36.53983,2.24736
36.34542,2.27815
36.15822,2.33898
35.98284,2.42833
35.89199,2.49434
35.82360,2.54403
35.82360,2.54403
35.82360,2.54403
35.68442,2.68321
35.68442,2.68321
35.68442,2.68321
35.63473,2.75160
35.56873,2.84245
35.47874,3.01907
35.43076,3.06987
35.36294,3.08666
35.29680,3.06412
35.25776,3.01907
35.16777,2.84245
35.05208,2.68321
34.91290,2.54403
34.75366,2.42833
34.57828,2.33898
34.39108,2.27815
34.19667,2.24736
34.19667,2.24736
33.99983,2.24736
33.99983,2.24736
33.80542,2.27815
33.61822,2.33898
33.44284,2.42833
33.35199,2.49434
33.28360,2.54403
33.28360,2.54403
33.28360,2.54403
33.14442,2.68321
33.14442,2.68321
33.14442,2.68321
33.09474,2.75160
33.02873,2.84245
32.93874,3.01907
32.89076,3.06987
32.82294,3.08666
32.75680,3.06412
32.71776,3.01907
32.62777,2.84245
32.51208,2.68321
32.37290,2.54403
32.21365,2.42833
32.03828,2.33898
31.85108,2.27815
31.65667,2.24736
31.65667,2.24736
31.45983,2.24736
31.45983,2.24736
31.26542,2.27815
31.07822,2.33898
30.90284,2.42833
30.81199,2.49434
30.74360,2.54403
30.74360,2.54403
30.74360,2.54403
30.60442,2.68321
30.60442,2.68321
30.60442,2.68321
30.55473,2.75160
30.48873,2.84245
30.39873,3.01907
30.35076,3.06987
30.28294,3.08666
30.21680,3.06412
30.17776,3.01907
30.08777,2.84245
29.97208,2.68321
29.83290,2.54403
29.67366,2.42833
29.49828,2.33898
29.31108,2.27815
29.11667,2.24736
29.11667,2.24736
28.91983,2.24736
28.91983,2.24736
28.72542,2.27815
28.53822,2.33898
28.36284,2.42833
28.27199,2.49434
28.20360,2.54403
28.20360,2.54403
28.20360,2.54403
28.06442,2.68321
28.06442,2.68321
28.06442,2.68321
28.01473,2.75160
27.94873,2.84245
27.85873,3.01907
27.81076,3.06987
27.74294,3.08666
27.67680,3.06412
27.63776,3.01907
27.54777,2.84245
27.43208,2.68321
27.29290,2.54403
27.13365,2.42833
26.95828,2.33898
26.77108,2.27815
26.57667,2.24736
26.57667,2.24736
26.37983,2.24736
26.37983,2.24736
26.18542,2.27815
25.99822,2.33898
25.82284,2.42833
25.73199,2.49434
25.66360,2.54403
25.66360,2.54403
25.66360,2.54403
25.52442,2.68321
25.52442,2.68321
25.52442,2.68321
25.47473,2.75160
25.40873,2.84245
25.31874,3.01907
25.27076,3.06987
25.20294,3.08666
25.13680,3.06412
25.09776,3.01907
25.00777,2.84245
24.89208,2.68321
24.75290,2.54403
24.59365,2.42833
24.41828,2.33898
24.23108,2.27815
24.03667,2.24736
24.03667,2.24736
23.83983,2.24736
23.83983,2.24736
23.64542,2.27815
23.45822,2.33898
23.28284,2.42833
23.19199,2.49434
23.12360,2.54403
23.12360,2.54403
23.12360,2.54403
22.98442,2.68321
22.98442,2.68321
22.98442,2.68321
22.93473,2.75160
22.86873,2.84245
22.77873,3.01907
22.73076,3.06987
22.66294,3.08666
22.59680,3.06412
22.55776,3.01907
22.46777,2.84245
22.35208,2.68321
22.21290,2.54403
22.05365,2.42833
21.87828,2.33898
21.69108,2.27815
21.49667,2.24736
21.49667,2.24736
21.29983,2.24736
21.29983,2.24736
21.10542,2.27815
20.91822,2.33898
20.74284,2.42833
20.65199,2.49434
20.58360,2.54403
20.58360,2.54403
20.58360,2.54403
20.44442,2.68321
20.44442,2.68321
20.44442,2.68321
20.39474,2.75160
20.32873,2.84245
20.23873,3.01907
20.19076,3.06987
20.12294,3.08666
20.05681,3.06412
20.01777,3.01907
19.92777,2.84245
19.81208,2.68321
19.67290,2.54403
19.51365,2.42833
19.33828,2.33898
19.15108,2.27815
18.95667,2.24736
18.95667,2.24736
18.75983,2.24736
18.75983,2.24736
18.56542,2.27815
18.37822,2.33898
18.20284,2.42833
18.11199,2.49434
18.04360,2.54403
18.04360,2.54403
18.04360,2.54403
17.90442,2.68321
17.90442,2.68321
17.90442,2.68321
17.85473,2.75160
17.78873,2.84245
17.69873,3.01907
17.65076,3.06987
17.58294,3.08666
17.51680,3.06412
17.47776,3.01907
17.38777,2.84245
17.27208,2.68321
17.13290,2.54403
16.97366,2.42833
16.79828,2.33898
16.61108,2.27815
16.41667,2.24736
16.41667,2.24736
16.21983,2.24736
16.21983,2.24736
16.02542,2.27815
15.83822,2.33898
15.66284,2.42833
15.57199,2.49434
15.50360,2.54403
15.50360,2.54403
15.50360,2.54403
15.36442,2.68321
15.36442,2.68321
15.36442,2.68321
15.31473,2.75160
15.24873,2.84245
15.15874,3.01907
15.11076,3.06987
15.04294,3.08666
14.97680,3.06412
14.93776,3.01907
14.84777,2.84245
14.73208,2.68321
14.59290,2.54403
14.43365,2.42833
14.25828,2.33898
14.07108,2.27815
13.87667,2.24736
13.87667,2.24736
13.67983,2.24736
13.67983,2.24736
13.48542,2.27815
13.29822,2.33898
13.12284,2.42833
13.03199,2.49434
12.96360,2.54403
12.96360,2.54403
12.96360,2.54403
12.82442,2.68321
12.82442,2.68321
12.82442,2.68321
12.77473,2.75160
12.70873,2.84245
12.61873,3.01907
12.57076,3.06987
12.50294,3.08666
12.43680,3.06412
12.39776,3.01907
12.30777,2.84245
12.19208,2.68321
12.05290,2.54403
11.89365,2.42833
11.71828,2.33898
11.53108,2.27815
11.33667,2.24736
11.33667,2.24736
11.13983,2.24736
11.13983,2.24736
10.94542,2.27815
10.75822,2.33898
10.58284,2.42833
10.49199,2.49434
10.42360,2.54403
10.42360,2.54403
10.42360,2.54403
10.28442,2.68321
10.28442,2.68321
10.28442,2.68321
10.23473,2.75160
10.16873,2.84245
10.07873,3.01907
10.03076,3.06987
9.96294,3.08666
9.89680,3.06412
9.85776,3.01907
9.76777,2.84245
9.65208,2.68321
9.51290,2.54403
9.35365,2.42833
9.17828,2.33898
8.99108,2.27815
8.79667,2.24736
8.79667,2.24736
8.59983,2.24736
8.59983,2.24736
8.40542,2.27815
8.21822,2.33898
8.04284,2.42833
7.95199,2.49434
7.88360,2.54403
7.88360,2.54403
7.88360,2.54403
7.74442,2.68321
7.74442,2.68321
7.74442,2.68321
7.69473,2.75160
7.62873,2.84245
7.53873,3.01907
7.49076,3.06987
7.42294,3.08666
7.35680,3.06412
7.31776,3.01907
7.22777,2.84245
7.11208,2.68321
6.97290,2.54403
6.81365,2.42833
6.63828,2.33898
6.45108,2.27815
6.25667,2.24736
6.25667,2.24736
6.05983,2.24736
6.05983,2.24736
5.86542,2.27815
5.67822,2.33898
5.50284,2.42833
5.41199,2.49434
5.34360,2.54403
5.34360,2.54403
5.34360,2.54403
5.20442,2.68321
5.20442,2.68321
5.20442,2.68321
5.15473,2.75160
5.08873,2.84245
4.99873,3.01907
4.95076,3.06987
4.88294,3.08666
4.81680,3.06412
4.77776,3.01907
4.68777,2.84245
4.57208,2.68321
4.43290,2.54403
4.27365,2.42833
4.09828,2.33898
3.91108,2.27815
3.71667,2.24736
3.71667,2.24736
3.51983,2.24736
3.51983,2.24736
3.32542,2.27815
3.13822,2.33898
2.96284,2.42833
2.87199,2.49434
2.80360,2.54403
2.80360,2.54403
2.80360,2.54403
2.66442,2.68321
2.66442,2.68321
2.66442,2.68321
2.61474,2.75160
2.54873,2.84245
2.45937,3.01783
2.39854,3.20503
2.36775,3.39943
2.36775,3.59628
2.39854,3.79068
2.45937,3.97789
2.52719,4.11100
2.54873,4.15326
2.66442,4.31250
2.80360,4.45169
2.96284,4.56738
2.98493,4.57863
3.13822,4.65674
3.13822,4.65674
3.13822,4.65674
3.22908,4.68626
3.32542,4.71757
3.51983,4.74836
3.51983,4.74836
3.71667,4.74836
3.80503,4.73436
3.91108,4.71757
3.91109,4.71756
3.91581,4.71643
3.91630,4.71847
3.97736,4.71671
4.03355,4.74896
4.26093,4.97634
4.29442,5.03766
4.29725,5.06402
4.29725,8.47336
4.27757,8.54040
4.22476,8.58615
4.17325,8.59736
2.73673,8.59736
2.65577,8.61018
2.64295,8.61221
2.52991,8.66981
2.52991,8.66981
2.52990,8.66981
2.44020,8.75951
2.44020,8.75952
2.38260,8.87256
2.36775,8.96633
2.36775,10.72937
2.37590,10.78086
2.38260,10.82316
2.44020,10.93620
2.44020,10.93620
2.44020,10.93620
2.52990,11.02590
2.52990,11.02590
2.52991,11.02591
2.64295,11.08350
2.64295,11.08350
2.64295,11.08350
2.71315,11.09462
2.77628,11.12455
2.81321,11.18386
2.81775,11.21710
2.81775,12.28862
2.79806,12.35566
2.74526,12.40141
2.71315,12.41109
2.64295,12.42221
2.64295,12.42221
2.58769,12.45037
2.52991,12.47981
2.52991,12.47981
2.52990,12.47981
2.44020,12.56951
2.44020,12.56951
2.38260,12.68256
2.36775,12.77633
2.36775,14.53937
2.37180,14.56497
2.38260,14.63316
2.44020,14.74620
2.44020,14.74620
2.44020,14.74620
2.52990,14.83590
2.52990,14.83590
2.52991,14.83591
2.64295,14.89350
2.64295,14.89350
2.73672,14.90836
2.73673,14.90836
3.68531,14.90836
3.75235,14.92804
3.77299,14.94468
10.61646,21.78815
10.71770,21.88939
10.72796,21.89965
10.85906,21.98725
10.85907,21.98725
10.96208,22.02992
11.00475,22.04759
11.15940,22.07836
11.15940,22.07836
11.15941,22.07836
11.15941,22.07836
17.48901,22.07836
17.55605,22.09804
17.60181,22.15085
17.61148,22.18296
17.62260,22.25316
17.62260,22.25316
17.62260,22.25316
17.62260,22.25316
17.68020,22.36620
17.68020,22.36620
17.68020,22.36620
17.76990,22.45590
17.76990,22.45590
17.76991,22.45591
17.88294,22.51350
17.88295,22.51350
17.97672,22.52836
17.97673,22.52836
19.73977,22.52836
19.83355,22.51350
19.94659,22.45591
20.03630,22.36620
20.09390,22.25316
20.09390,22.25316
20.09390,22.25316
20.10875,22.15938
20.10875,22.15938
20.10875,22.01212
20.12843,21.94508
20.18124,21.89933
20.25039,21.88939
20.31395,21.91841
20.33307,21.93924
20.44442,22.09250
20.58360,22.23169
20.74284,22.34738
20.82570,22.38960
20.91822,22.43674
20.91822,22.43674
20.91822,22.43674
20.97721,22.45591
21.10542,22.49757
21.29983,22.52836
21.29983,22.52836
21.49667,22.52836
21.69108,22.49757
21.87827,22.43674
22.05365,22.34738
22.21290,22.23169
22.35208,22.09250
22.46777,21.93326
22.55713,21.75788
22.55776,21.75664
22.60574,21.70585
22.67356,21.68905
22.73969,21.71159
22.77873,21.75664
22.86872,21.93326
22.87307,21.93924
22.98442,22.09250
23.12360,22.23169
23.28284,22.34738
23.36570,22.38960
23.45822,22.43674
23.45822,22.43674
23.45822,22.43674
23.51721,22.45591
23.64542,22.49757
23.83983,22.52836
23.83983,22.52836
24.03667,22.52836
24.23108,22.49757
24.41827,22.43674
24.59365,22.34738
24.75290,22.23169
24.89208,22.09250
25.00777,21.93326
25.09713,21.75788
25.09776,21.75664
25.14574,21.70585
25.21356,21.68905
25.27970,21.71159
25.31874,21.75664
25.40872,21.93326
25.41307,21.93924
25.52442,22.09250
25.66360,22.23169
25.82284,22.34738
25.90570,22.38960
25.99822,22.43674
25.99822,22.43674
25.99822,22.43674
26.05721,22.45591
26.18542,22.49757
26.37983,22.52836
26.37983,22.52836
26.57667,22.52836
26.77108,22.49757
26.95828,22.43674
27.13365,22.34738
27.29290,22.23169
27.43208,22.09250
27.54777,21.93326
27.63713,21.75788
27.63776,21.75664
27.68574,21.70585
27.75356,21.68905
27.81969,21.71159
27.85873,21.75664
27.94872,21.93326
27.95307,21.93924
28.06442,22.09250
28.20360,22.23169
28.36285,22.34738
28.44571,22.38960
28.53822,22.43674
28.53822,22.43674
28.53822,22.43674
28.59721,22.45591
28.72542,22.49757
28.91983,22.52836
28.91983,22.52836
29.11667,22.52836
29.31108,22.49757
29.49827,22.43674
29.67366,22.34738
29.83290,22.23169
29.97208,22.09250
30.08777,21.93326
30.17713,21.75788
30.23796,21.57068
30.26875,21.37628
30.26875,21.17943
30.23796,20.98503
30.17713,20.79783
30.08777,20.62245
29.97208,20.46321
29.83290,20.32403
29.71170,20.23598
29.67365,20.20833
29.49704,20.11834
29.44624,20.07037
29.42944,20.00255
29.45198,19.93641
29.49704,19.89737
29.67365,19.80738
29.67365,19.80738
29.67366,19.80738
29.83290,19.69169
29.97208,19.55250
30.08777,19.39326
30.17713,19.21788
30.23796,19.03068
30.26875,18.83628
30.26875,18.63943
30.23796,18.44503
30.20648,18.34816
30.17713,18.25783
30.17713,18.25783
30.17713,18.25783
30.11056,18.12717
30.08777,18.08245
29.97208,17.92321
29.83290,17.78403
29.67366,17.66833
29.67365,17.66833
29.67365,17.66833
29.66950,17.66579
29.67059,17.66402
29.62613,17.62199
29.60925,17.55953
29.60925,12.84402
29.61549,12.82278
29.61707,12.80069
29.62514,12.78990
29.62893,12.77698
29.64567,12.76248
29.65894,12.74475
29.67156,12.74005
29.68174,12.73123
29.70365,12.72807
29.72440,12.72034
29.73756,12.72320
29.75090,12.72128
29.77104,12.73048
29.79268,12.73519
29.81040,12.74846
29.81445,12.75031
29.82092,12.75632
29.92537,12.86078
29.92537,12.86078
29.93244,12.86785
35.35143,18.28684
35.38492,18.34816
35.38775,18.37452
35.38775,19.61937
35.39854,19.68751
35.40260,19.71316
35.46020,19.82620
35.46020,19.82620
35.46020,19.82620
35.54990,19.91590
35.54990,19.91590
35.54991,19.91591
35.66294,19.97350
35.66295,19.97350
35.75672,19.98836
35.75673,19.98836
37.51977,19.98836
37.61355,19.97350
37.72659,19.91591
37.81630,19.82620
37.87390,19.71316
37.87390,19.71316
37.87390,19.71316
37.88875,19.61938
37.88875,19.61938
37.88875,17.85634
37.87390,17.76255
37.81630,17.64952
37.81630,17.64951
37.81629,17.64951
37.72660,17.55981
37.72659,17.55981
37.72659,17.55981
37.64483,17.51815
37.61355,17.50221
37.51977,17.48736
37.51977,17.48736
37.37252,17.48736
37.30548,17.46767
37.25972,17.41487
37.24978,17.34571
37.27880,17.28215
37.29963,17.26304
37.45290,17.15169
37.59208,17.01250
37.70777,16.85326
37.79713,16.67788
37.85796,16.49068
37.86463,16.44856
37.88875,16.29628
37.88875,16.09943
37.85796,15.90503
37.81816,15.78255
37.79713,15.71783
37.79713,15.71783
37.79713,15.71783
37.70777,15.54245
37.59208,15.38321
37.45290,15.24403
37.37327,15.18618
37.29365,15.12833
37.11704,15.03834
37.06624,14.99037
37.04944,14.92255
37.07198,14.85641
37.11704,14.81737
37.29365,14.72738
37.29365,14.72738
37.29366,14.72738
37.45290,14.61169
37.59208,14.47250
37.70777,14.31326
37.79713,14.13788
37.85796,13.95068
37.88558,13.77628
37.88875,13.75628
37.88875,13.55943
37.85796,13.36503
37.79713,13.17783
37.70777,13.00245
37.59208,12.84321
37.45290,12.70403
37.33170,12.61598
37.29365,12.58833
37.11704,12.49834
37.06624,12.45037
37.04944,12.38255
37.07198,12.31641
37.11704,12.27737
37.29365,12.18738
37.29365,12.18738
37.29366,12.18738
37.45290,12.07169
37.59208,11.93250
37.70777,11.77326
37.79713,11.59788
37.85796,11.41068
37.88875,11.21628
37.88875,11.01943
37.87079,10.90602
37.85796,10.82503
37.85795,10.82502
37.85682,10.82029
37.85887,10.81980
37.85708,10.75881
37.88935,10.70256
38.26092,10.33098
38.26093,10.33098
38.27113,10.32078
38.27113,10.32078
38.38117,10.21074
38.44636,10.09782
38.49693,10.04960
38.56554,10.03638
38.63040,10.06235
38.67093,10.11927
38.67775,10.15982
38.67775,23.19336
38.65807,23.26040
38.60526,23.30615
38.55375,23.31736
1.70275,23.31736
1.63571,23.29767
1.58996,23.24487
1.57875,23.19336
1.57875,1.58236
1.59843,1.51532
1.65124,1.46956
1.70275,1.45836
38.55375,1.45836
Z" /> 
<path style="fill:#000000; fill-opacity:1.00000; stroke:none;fill-rule:evenodd;"
d="M 8.19955,4.64722
8.21822,4.65674
8.21822,4.65674
8.21823,4.65674
8.32074,4.69005
8.40542,4.71757
8.59983,4.74836
8.59983,4.74836
8.79667,4.74836
8.88503,4.73436
8.99108,4.71757
8.99109,4.71756
8.99582,4.71643
8.99630,4.71847
9.05736,4.71671
9.11355,4.74896
9.34093,4.97634
9.37442,5.03766
9.37725,5.06402
9.37725,9.76244
9.37725,9.76246
9.37725,9.77005
9.37725,9.92566
9.40361,10.02405
9.41752,10.07598
9.49533,10.21074
9.49533,10.21074
9.61243,10.32784
9.61244,10.32785
10.76099,11.47640
10.76100,11.47641
10.76533,11.48074
10.76533,11.48074
10.87537,11.59078
11.01013,11.66858
11.16044,11.70886
13.48209,11.70886
13.54913,11.72854
13.56977,11.74518
19.10895,17.28436
19.14244,17.34569
19.13746,17.41538
19.09558,17.47131
19.03012,17.49573
19.00188,17.49452
18.95667,17.48736
18.75983,17.48736
18.75983,17.48736
18.56542,17.51815
18.37822,17.57897
18.20284,17.66833
18.11199,17.73434
18.04360,17.78403
18.04360,17.78403
18.04360,17.78403
17.90442,17.92321
17.90442,17.92321
17.90442,17.92321
17.85114,17.99654
17.78872,18.08246
17.78618,18.08660
17.78439,18.08551
17.74247,18.12993
17.67992,18.14686
16.42275,18.14686
16.35571,18.12717
16.30995,18.07437
16.29875,18.02286
16.29875,17.85634
16.28730,17.78403
16.28390,17.76255
16.22630,17.64952
16.22630,17.64951
16.22630,17.64951
16.13660,17.55981
16.13659,17.55981
16.13659,17.55981
16.05483,17.51815
16.02355,17.50221
15.92977,17.48736
14.16673,17.48736
14.08577,17.50018
14.07295,17.50221
13.95991,17.55981
13.95991,17.55981
13.95990,17.55981
13.87020,17.64951
13.87020,17.64952
13.87020,17.64952
13.86061,17.66833
13.81260,17.76256
13.79775,17.85633
13.79775,19.61937
13.80854,19.68751
13.81260,19.71316
13.87020,19.82620
13.87020,19.82620
13.87020,19.82620
13.95990,19.91590
13.95990,19.91590
13.95991,19.91591
14.07294,19.97350
14.07295,19.97350
14.16672,19.98836
14.16673,19.98836
15.92977,19.98836
16.02355,19.97350
16.13659,19.91591
16.22630,19.82620
16.28390,19.71316
16.28390,19.71316
16.28390,19.71316
16.29875,19.61938
16.29875,19.45286
16.31844,19.38582
16.37124,19.34006
16.42275,19.32886
17.67992,19.32886
17.74696,19.34854
17.78455,19.39011
17.78618,19.38911
17.78872,19.39326
17.78872,19.39326
17.78873,19.39326
17.90442,19.55250
18.04360,19.69169
18.19687,19.80304
18.23954,19.85837
18.24551,19.92798
18.21291,19.98978
18.15207,20.02414
18.12398,20.02736
17.97673,20.02736
17.89577,20.04018
17.88295,20.04221
17.76991,20.09981
17.76991,20.09981
17.76990,20.09981
17.68020,20.18951
17.68020,20.18952
17.68020,20.18952
17.64006,20.26829
17.62260,20.30256
17.61148,20.37276
17.58155,20.43589
17.52224,20.47282
17.48901,20.47736
11.62119,20.47736
11.55415,20.45767
11.53351,20.44104
6.20789,15.11542
6.17441,15.05410
6.17939,14.98441
6.22126,14.92847
6.27617,14.90527
6.45108,14.87757
6.63827,14.81674
6.81365,14.72738
6.97290,14.61169
7.11208,14.47250
7.22777,14.31326
7.31713,14.13788
7.31776,14.13664
7.36574,14.08585
7.43356,14.06905
7.49970,14.09159
7.53873,14.13664
7.62872,14.31326
7.66348,14.36110
7.74442,14.47250
7.88360,14.61169
8.04284,14.72738
8.12570,14.76960
8.21822,14.81674
8.21822,14.81674
8.21823,14.81674
8.27721,14.83591
8.40542,14.87757
8.59983,14.90836
8.59983,14.90836
8.79667,14.90836
8.99108,14.87757
9.17827,14.81674
9.35365,14.72738
9.51290,14.61169
9.65208,14.47250
9.76777,14.31326
9.85713,14.13788
9.91796,13.95068
9.94558,13.77628
9.94875,13.75628
9.94875,13.55943
9.91796,13.36503
9.85713,13.17783
9.76777,13.00245
9.65208,12.84321
9.51290,12.70403
9.35365,12.58833
9.35365,12.58833
9.17828,12.49897
8.99108,12.43815
8.79667,12.40736
8.79667,12.40736
8.59983,12.40736
8.59983,12.40736
8.40542,12.43815
8.40068,12.43929
8.40019,12.43726
8.33907,12.43899
8.28295,12.40675
8.05557,12.17938
8.02208,12.11805
8.01925,12.09170
8.01925,4.75771
8.03894,4.69067
8.09174,4.64492
8.16090,4.63497
Z" /> 
<path style="fill:#000000; fill-opacity:1.00000; stroke:none;fill-rule:evenodd;"
d="M 31.05955,4.64722
31.07822,4.65674
31.07822,4.65674
31.07822,4.65674
31.18074,4.69005
31.26542,4.71757
31.45983,4.74836
31.45983,4.74836
31.65667,4.74836
31.74503,4.73436
31.85108,4.71757
31.85109,4.71756
31.85581,4.71643
31.85630,4.71847
31.91736,4.71671
31.97355,4.74896
32.20093,4.97634
32.23442,5.03766
32.23725,5.06402
32.23725,12.30244
32.23725,12.30246
32.23725,12.46566
32.26507,12.56951
32.27752,12.61597
32.27752,12.61597
32.27752,12.61598
32.35533,12.75074
32.35533,12.75074
32.47243,12.86784
32.47244,12.86785
35.38715,15.78255
35.42063,15.84388
35.41784,15.89984
35.41968,15.90028
35.41854,15.90503
35.38775,16.09943
35.38775,16.29627
35.39491,16.34148
35.38595,16.41078
35.34096,16.46423
35.27420,16.48487
35.20689,16.46614
35.18475,16.44856
30.91557,12.17938
30.88208,12.11805
30.87925,12.09170
30.87925,4.75771
30.89893,4.69067
30.95174,4.64492
31.02090,4.63497
Z" /> 
<path style="fill:#000000; fill-opacity:1.00000; stroke:none;fill-rule:evenodd;"
d="M 33.56424,4.63603
33.56614,4.63584
33.59955,4.64722
33.61822,4.65674
33.61822,4.65674
33.61822,4.65674
33.72074,4.69005
33.80542,4.71757
33.99983,4.74836
33.99983,4.74836
34.19667,4.74836
34.28503,4.73436
34.39108,4.71757
34.39109,4.71756
34.39581,4.71643
34.39630,4.71847
34.45736,4.71671
34.51355,4.74896
34.74093,4.97634
34.77442,5.03766
34.77725,5.06402
34.77725,12.30244
34.77725,12.30246
34.77725,12.46566
34.80507,12.56951
34.81752,12.61597
34.81752,12.61597
34.81752,12.61598
34.89533,12.75074
34.89533,12.75074
35.01243,12.86784
35.01244,12.86785
35.38715,13.24255
35.42063,13.30388
35.41784,13.35984
35.41968,13.36028
35.41854,13.36503
35.38775,13.55943
35.38775,13.75627
35.39491,13.80148
35.38595,13.87078
35.34096,13.92423
35.27420,13.94487
35.20689,13.92614
35.18475,13.90856
33.45557,12.17938
33.42208,12.11805
33.41925,12.09170
33.41925,4.75771
33.42002,4.75507
33.41936,4.75240
33.42981,4.72174
33.43894,4.69067
33.44101,4.68887
33.44190,4.68626
33.46727,4.66612
33.49174,4.64492
33.49446,4.64452
33.49662,4.64281
33.52884,4.63958
33.56090,4.63497
Z" /> 
<path style="fill:#000000; fill-opacity:1.00000; stroke:none;fill-rule:evenodd;"
d="M 25.97955,4.64722
25.99822,4.65674
25.99822,4.65674
25.99822,4.65674
26.10074,4.69005
26.18542,4.71757
26.37983,4.74836
26.37983,4.74836
26.57667,4.74836
26.66503,4.73436
26.77108,4.71757
26.77109,4.71756
26.77581,4.71643
26.77630,4.71847
26.83736,4.71671
26.89355,4.74896
27.12093,4.97634
27.15442,5.03766
27.15725,5.06402
27.15725,9.25444
27.15725,9.25446
27.15725,9.26205
27.15725,9.41766
27.18259,9.51224
27.19236,9.54870
27.19753,9.56798
27.20607,9.58278
27.27533,9.70274
27.27533,9.70274
27.39243,9.81984
27.39244,9.81985
28.39093,10.81834
28.42442,10.87966
28.42725,10.90602
28.42725,13.45569
28.40756,13.52273
28.35476,13.56849
28.28560,13.57843
28.22205,13.54941
28.21557,13.54338
25.83557,11.16338
25.80208,11.10205
25.79925,11.07569
25.79925,4.75771
25.81893,4.69067
25.87174,4.64492
25.94090,4.63497
Z" /> 
<path style="fill:#000000; fill-opacity:1.00000; stroke:none;fill-rule:evenodd;"
d="M 5.65955,4.64722
5.67822,4.65674
5.67822,4.65674
5.67822,4.65674
5.78074,4.69005
5.86542,4.71757
6.05983,4.74836
6.05983,4.74836
6.25667,4.74836
6.34503,4.73436
6.45108,4.71757
6.45109,4.71756
6.45581,4.71643
6.45630,4.71847
6.51736,4.71671
6.57355,4.74896
6.80093,4.97634
6.83442,5.03766
6.83725,5.06402
6.83725,12.31005
6.83725,12.31005
6.83725,12.35566
6.83725,12.39801
6.81756,12.46505
6.76476,12.51080
6.70554,12.51931
6.69560,12.52074
6.69560,12.52074
6.65695,12.50849
6.63828,12.49898
6.45108,12.43815
6.25667,12.40736
6.25667,12.40736
6.05983,12.40736
6.05983,12.40736
5.86542,12.43815
5.86068,12.43929
5.86019,12.43726
5.79907,12.43899
5.74295,12.40675
5.51557,12.17938
5.48208,12.11805
5.47925,12.09170
5.47925,4.75771
5.49893,4.69067
5.55174,4.64492
5.62090,4.63497
Z" /> 
<path style="fill:#000000; fill-opacity:1.00000; stroke:none;fill-rule:evenodd;"
d="M 23.43955,4.64722
23.45822,4.65674
23.45822,4.65674
23.45822,4.65674
23.56074,4.69005
23.64542,4.71757
23.83983,4.74836
23.83983,4.74836
24.03667,4.74836
24.12503,4.73436
24.23108,4.71757
24.23109,4.71756
24.23581,4.71643
24.23630,4.71847
24.29736,4.71671
24.35355,4.74896
24.58093,4.97634
24.61442,5.03766
24.61725,5.06402
24.61725,11.29405
24.61725,11.29405
24.61725,11.41068
24.61725,11.42370
24.59756,11.49073
24.54476,11.53649
24.48429,11.54518
24.47560,11.54643
24.45383,11.53649
24.41205,11.51741
24.40557,11.51138
23.29557,10.40138
23.26208,10.34005
23.25925,10.31370
23.25925,4.75771
23.27894,4.69067
23.33174,4.64492
23.40090,4.63497
Z" /> 
<path style="fill:#000000; fill-opacity:1.00000; stroke:none;fill-rule:evenodd;"
d="M 20.89955,4.64722
20.91822,4.65674
20.91822,4.65674
20.91822,4.65674
21.02074,4.69005
21.10542,4.71757
21.29983,4.74836
21.29983,4.74836
21.49667,4.74836
21.58503,4.73436
21.69108,4.71757
21.69109,4.71756
21.69581,4.71643
21.69630,4.71847
21.75736,4.71671
21.81355,4.74896
22.04093,4.97634
22.07442,5.03766
22.07725,5.06402
22.07725,10.53205
22.07725,10.53205
22.07725,10.66170
22.05756,10.72874
22.00476,10.77449
21.94430,10.78318
21.93560,10.78443
21.91171,10.77352
21.87205,10.75541
21.86557,10.74938
20.75557,9.63938
20.72208,9.57805
20.71925,9.55170
20.71925,4.75771
20.73893,4.69067
20.79174,4.64492
20.86090,4.63497
Z" /> 
<path style="fill:#000000; fill-opacity:1.00000; stroke:none;fill-rule:evenodd;"
d="M 10.73955,4.64722
10.75822,4.65674
10.75822,4.65674
10.75822,4.65674
10.86074,4.69005
10.94542,4.71757
11.13983,4.74836
11.13983,4.74836
11.33667,4.74836
11.42503,4.73436
11.53108,4.71757
11.53109,4.71756
11.53581,4.71643
11.53630,4.71847
11.59736,4.71671
11.65355,4.74896
11.88093,4.97634
11.91442,5.03766
11.91725,5.06402
11.91725,9.25444
11.91725,9.25446
11.91725,9.26205
11.91725,9.41766
11.94259,9.51224
11.95236,9.54870
11.95753,9.56798
11.96607,9.58278
12.03533,9.70274
12.03533,9.70274
12.15243,9.81984
12.15244,9.81985
12.64777,10.31518
12.68125,10.37650
12.67627,10.44619
12.63440,10.50212
12.56893,10.52654
12.56009,10.52686
11.53441,10.52686
11.46737,10.50717
11.44673,10.49054
10.59557,9.63938
10.56208,9.57805
10.55925,9.55170
10.55925,4.75771
10.57893,4.69067
10.63174,4.64492
10.70090,4.63497
Z" /> 
<path style="fill:#000000; fill-opacity:1.00000; stroke:none;fill-rule:evenodd;"
d="M 28.51955,4.64722
28.53822,4.65674
28.53822,4.65674
28.53822,4.65674
28.64074,4.69005
28.72542,4.71757
28.91983,4.74836
28.91983,4.74836
29.11667,4.74836
29.20503,4.73436
29.31108,4.71757
29.31109,4.71756
29.31581,4.71643
29.31630,4.71847
29.37736,4.71671
29.43355,4.74896
29.66093,4.97634
29.69442,5.03766
29.69725,5.06402
29.69725,10.15369
29.69101,10.17494
29.68943,10.19703
29.68136,10.20781
29.67756,10.22073
29.66083,10.23523
29.64756,10.25296
29.63494,10.25767
29.62476,10.26649
29.60284,10.26964
29.58210,10.27738
29.56893,10.27451
29.55560,10.27643
29.53546,10.26723
29.51382,10.26253
29.49610,10.24926
29.49205,10.24741
29.48557,10.24138
29.40401,10.15982
29.38113,10.13694
29.38113,10.13694
28.37557,9.13138
28.34208,9.07005
28.33925,9.04370
28.33925,4.75771
28.35893,4.69067
28.41174,4.64492
28.48090,4.63497
Z" /> 
<path style="fill:#000000; fill-opacity:1.00000; stroke:none;fill-rule:evenodd;"
d="M 18.35955,4.64722
18.37822,4.65674
18.37822,4.65674
18.37823,4.65674
18.48074,4.69005
18.56542,4.71757
18.75983,4.74836
18.75983,4.74836
18.95667,4.74836
19.04503,4.73436
19.15108,4.71757
19.15109,4.71756
19.15582,4.71643
19.15630,4.71847
19.21736,4.71671
19.27355,4.74896
19.50093,4.97634
19.53442,5.03766
19.53725,5.06402
19.53725,9.77005
19.53725,9.77005
19.53725,9.92566
19.54440,9.95237
19.54492,9.96634
19.53964,9.98720
19.53912,10.00871
19.53121,10.02040
19.52775,10.03407
19.51202,10.04876
19.49996,10.06658
19.48699,10.07213
19.47668,10.08176
19.45551,10.08561
19.43573,10.09408
19.42182,10.09174
19.40794,10.09427
19.38805,10.08606
19.36683,10.08249
19.34953,10.07017
19.34335,10.06762
19.34079,10.06395
19.33333,10.05864
18.21557,8.94088
18.18208,8.87955
18.17925,8.85320
18.17925,4.75771
18.19893,4.69067
18.25174,4.64492
18.32090,4.63497
Z" /> 
<path style="fill:#000000; fill-opacity:1.00000; stroke:none;fill-rule:evenodd;"
d="M 36.10424,4.63603
36.10614,4.63584
36.13955,4.64722
36.15822,4.65674
36.15822,4.65674
36.15823,4.65674
36.26074,4.69005
36.34542,4.71757
36.53983,4.74836
36.53983,4.74836
36.73667,4.74836
36.82503,4.73436
36.93108,4.71757
36.93109,4.71756
36.93581,4.71643
36.93630,4.71847
36.99736,4.71671
37.05355,4.74896
37.28093,4.97634
37.31442,5.03766
37.31725,5.06402
37.31725,9.55169
37.29756,9.61873
37.28093,9.63938
37.05355,9.86675
36.99223,9.90024
36.93625,9.89745
36.93581,9.89929
36.93107,9.89815
36.73667,9.86736
36.73667,9.86736
36.53983,9.86736
36.53983,9.86736
36.34542,9.89815
36.20168,9.94485
36.15823,9.95897
36.15822,9.95897
36.15822,9.95898
36.13954,9.96849
36.07087,9.98139
36.00613,9.95511
35.96588,9.89800
35.95925,9.85801
35.95925,4.75771
35.96003,4.75507
35.95936,4.75240
35.96981,4.72174
35.97893,4.69067
35.98101,4.68887
35.98190,4.68626
36.00727,4.66612
36.03174,4.64492
36.03446,4.64452
36.03662,4.64281
36.06884,4.63958
36.10090,4.63497
Z" /> 
<path style="fill:#000000; fill-opacity:1.00000; stroke:none;fill-rule:evenodd;"
d="M 15.81955,4.64722
15.83822,4.65674
15.83822,4.65674
15.83822,4.65674
15.94074,4.69005
16.02542,4.71757
16.21983,4.74836
16.21983,4.74836
16.41667,4.74836
16.50503,4.73436
16.61108,4.71757
16.61109,4.71756
16.61581,4.71643
16.61630,4.71847
16.67736,4.71671
16.73355,4.74896
16.96093,4.97634
16.99442,5.03766
16.99725,5.06402
16.99725,9.06394
16.99725,9.06396
16.99725,9.22716
17.02683,9.33757
17.03752,9.37747
17.03753,9.37748
17.04997,9.39902
17.06644,9.46692
17.04359,9.53295
16.98866,9.57614
16.91911,9.58278
16.85701,9.55077
16.85490,9.54870
15.67557,8.36938
15.64208,8.30805
15.63925,8.28170
15.63925,4.75771
15.65893,4.69067
15.71174,4.64492
15.78090,4.63497
Z" /> 
<path style="fill:#000000; fill-opacity:1.00000; stroke:none;fill-rule:evenodd;"
d="M 13.27955,4.64722
13.29822,4.65674
13.29822,4.65674
13.29822,4.65674
13.40074,4.69005
13.48542,4.71757
13.67983,4.74836
13.67983,4.74836
13.87667,4.74836
13.96503,4.73436
14.07108,4.71757
14.07109,4.71756
14.07581,4.71643
14.07630,4.71847
14.13736,4.71671
14.19355,4.74896
14.42093,4.97634
14.45442,5.03766
14.45725,5.06402
14.45725,8.49244
14.45725,8.49246
14.45725,8.65566
14.48222,8.74886
14.48222,8.74886
14.48222,8.74886
14.49752,8.80598
14.57533,8.94074
14.57533,8.94074
14.69243,9.05784
14.69244,9.05785
14.93377,9.29918
14.94438,9.31861
14.95888,9.33535
14.96080,9.34868
14.96725,9.36050
14.96567,9.38258
14.96882,9.40450
14.96323,9.41676
14.96227,9.43019
14.94900,9.44792
14.93980,9.46806
14.92847,9.47534
14.92040,9.48612
14.89965,9.49386
14.88102,9.50583
14.85910,9.50898
14.85493,9.51054
14.84609,9.51086
14.71644,9.51086
14.71644,9.51086
14.70883,9.51086
14.70883,9.51086
14.70883,9.51086
13.56641,9.51086
13.49937,9.49117
13.47873,9.47454
13.13557,9.13138
13.10208,9.07005
13.09925,9.04370
13.09925,4.75771
13.11893,4.69067
13.17174,4.64492
13.24090,4.63497
Z" /> 
</g> 
</svg>
